<?xml version="1.0" encoding="UTF-8"?>
<svg enable-background="new 0 0 512 512" version="1.1" viewBox="0 0 512 512" xml:space="preserve" xmlns="http://www.w3.org/2000/svg">
<circle cx="256" cy="256" r="256" fill="#7AA5DA"/>
<path d="m511.92 250.08-113.64-113.45-185.11 225.63 133.28 133.28c96.738-36.551 165.54-130 165.54-239.54 0-1.981-0.031-3.955-0.076-5.923z" fill="#5786B5"/>
<path d="m383.72 133.52c10.206-3.982 20.756 4.948 18.515 15.67l-45.77 218.78c-2.138 10.257-14.188 14.877-22.635 8.671l-69.094-50.717-35.219 35.961c-6.189 6.31-16.86 3.741-19.515-4.672l-25.41-80.662-68.112-20.118c-8.947-2.638-9.464-15.084-0.793-18.48l268.03-104.43zm-33.599 48.545c2.982-2.638-0.483-7.292-3.862-5.189l-147.02 91.177c-2.586 1.603-3.775 4.758-2.862 7.671l20.049 88.04c0.397 1.345 2.327 1.155 2.5-0.241l4.482-67.094c0.172-1.655 0.965-3.172 2.207-4.275l124.5-110.09z" fill="#fff"/>
<path d="m346.26 176.88c3.379-2.103 6.844 2.551 3.862 5.189l-124.5 110.09c-1.241 1.103-2.034 2.62-2.207 4.275l-4.482 67.094c-0.172 1.396-2.103 1.586-2.5 0.241l-20.049-88.04c-0.914-2.913 0.276-6.068 2.862-7.671l147.01-91.177z" fill="#9EC2E5"/>
<path d="m217.15 364.68c-3.241-1.155-5.982-3.741-7.154-7.465l-25.41-80.662-68.112-20.118c-8.947-2.638-9.464-15.084-0.793-18.48l268.03-104.43c6.585-2.569 13.326 0.241 16.653 5.448-0.621-0.948-1.362-1.827-2.189-2.603l-181.84 148.44v6.499l-1-0.724 1 40.926v32.823c0.259 0.121 0.534 0.224 0.81 0.31v0.034h1e-3z" fill="#fff"/>
<g fill="#D1D1D1">
	<path d="m402.52 145.52c0.052 1.172-0.034 2.413-0.293 3.672l-45.77 218.78c-2.138 10.257-14.188 14.877-22.635 8.671l-69.094-50.717-48.39-34.616v-6.499l181.84-148.45c0.827 0.776 1.569 1.655 2.189 2.603 0.121 0.207 0.241 0.396 0.362 0.586 0.103 0.207 0.224 0.414 0.328 0.603 0.103 0.207 0.207 0.414 0.293 0.621 0.103 0.224 0.19 0.431 0.276 0.655 0.069 0.19 0.155 0.396 0.224 0.621 0.224 0.672 0.396 1.362 0.517 2.086 0.069 0.448 0.121 0.897 0.155 1.379z"/>
	<path d="m264.73 325.92-35.219 35.961c-0.293 0.293-0.603 0.586-0.914 0.845-0.31 0.259-0.621 0.483-0.948 0.707l-0.017 0.017c-0.655 0.431-1.327 0.793-2.034 1.086-0.362 0.138-0.707 0.276-1.069 0.362-1.5 0.448-3.034 0.569-4.551 0.414-0.396-0.034-0.793-0.103-1.172-0.172-0.052 0-0.103-0.017-0.155-0.034-0.379-0.103-0.759-0.207-1.138-0.328-0.121-0.034-0.241-0.069-0.362-0.138l-0.81-33.133v-40.202l48.389 34.615z"/>
</g>
<g fill="#DADDE0">
	<path d="m228.6 362.73c-0.31 0.259-0.621 0.5-0.948 0.724v-0.017c0.328-0.224 0.638-0.448 0.948-0.707z"/>
	<path d="m227.65 363.44v0.017s0-0.017-0.017 0l0.017-0.017z"/>
	<path d="m225.6 364.54c0.707-0.293 1.379-0.655 2.034-1.086-0.655 0.43-1.345 0.792-2.034 1.086z"/>
	<path d="m219.98 365.32c1.517 0.155 3.051 0.034 4.551-0.414-1.086 0.345-2.207 0.5-3.327 0.5-0.345 0-0.69-0.017-1.017-0.052-0.069 1e-3 -0.138 1e-3 -0.207-0.034z"/>
</g>
<g fill="#fff">
	<path d="m221.2 365.4c-0.345 0-0.69-0.017-1.017-0.052 0.327 0.035 0.672 0.052 1.017 0.052z"/>
	<path d="m219.98 365.32c0.069 0.034 0.138 0.034 0.207 0.034-0.362-0.017-0.69-0.069-1.034-0.138 0.275 0.053 0.551 0.087 0.827 0.104z"/>
</g>
<g fill="#DADDE0">
	<path d="m219.98 365.32c-0.276-0.017-0.552-0.052-0.827-0.103-0.121-0.017-0.241-0.034-0.345-0.069 0.379 0.069 0.775 0.138 1.172 0.172z"/>
	<path d="m217.52 364.78c0.379 0.121 0.759 0.224 1.138 0.328-0.155-0.034-0.31-0.069-0.465-0.103-0.069-0.017-0.138-0.034-0.19-0.069-0.156-0.035-0.328-0.087-0.483-0.156z"/>
</g>
<g fill="#fff">
	<path d="m218.19 365.01c0.155 0.034 0.31 0.069 0.465 0.103-0.155-0.017-0.31-0.051-0.465-0.103z"/>
	<path d="m217.52 364.78c0.155 0.069 0.328 0.121 0.483 0.155-0.259-0.052-0.517-0.138-0.776-0.241 0.103 0.034 0.189 0.069 0.293 0.086z"/>
</g>
<path d="m217.52 364.78c-0.103-0.017-0.19-0.052-0.293-0.086-0.017 0.017-0.052 0-0.069-0.017v-0.034c0.12 0.068 0.241 0.102 0.362 0.137z" fill="#DADDE0"/>
<path d="m216.34 331.51 0.81 33.133c-0.276-0.086-0.552-0.19-0.81-0.31v-32.823z" fill="#D1D1D1"/>
<polygon points="216.34 291.31 216.34 331.51 215.34 290.58" fill="#DADDE0"/>
<path d="m350.12 182.06-124.5 110.09c-1.241 1.103-2.034 2.62-2.207 4.275l-4.474 67.1c-0.172 1.396-2.103 1.586-2.517 0.241l-20.04-88.045c-0.914-2.913 0.276-6.068 2.862-7.671l147.02-91.177c3.379-2.104 6.844 2.551 3.861 5.188z" fill="#ADBCC9"/>
</svg>
