<?xml version="1.0" encoding="UTF-8"?>
<svg enable-background="new 0 0 512 512" version="1.1" viewBox="0 0 512 512" xml:space="preserve" xmlns="http://www.w3.org/2000/svg">
<circle cx="256" cy="256" r="256" fill="#6F3FAA"/>
<path d="m367.06 140.44c-62.312-15.05-124.74-32.654-188.64-10.288-41.374 15.515-41.374 60.337-39.65 98.263 0 10.343-12.067 24.135-6.896 36.202 10.343 34.478 18.963 68.956 55.165 86.195 5.172 3.448 0 10.343 3.448 15.515-1.724 0-5.172 1.724-5.172 3.448 0 8.263 3.708 20.902 1.245 29.05l110.01 109.96c113.09-18.01 201.48-110.07 213.91-224.92l-143.42-143.42z" fill="#512D84"/>
<g fill="#fff">
	<path d="m391.43 179.92-0.084-0.338c-6.84-27.653-37.678-57.325-65.998-63.498l-0.319-0.066c-45.806-8.738-92.251-8.738-138.05 0l-0.329 0.066c-28.31 6.173-59.149 35.847-65.998 63.498l-0.076 0.338c-8.456 38.617-8.456 77.781 0 116.4l0.076 0.338c6.558 26.472 35.099 54.782 62.362 62.567v30.868c0 11.173 13.615 16.66 21.357 8.597l31.275-32.509c6.784 0.379 13.571 0.591 20.356 0.591 23.057 0 46.125-2.181 69.023-6.549l0.319-0.066c28.32-6.173 59.158-35.847 65.998-63.498l0.084-0.338c8.456-38.618 8.456-77.78 1e-3 -116.4zm-24.751 110.8c-4.567 18.041-27.981 40.469-46.585 44.613-24.355 4.632-48.904 6.611-73.428 5.932-0.488-0.014-0.957 0.176-1.296 0.526-3.481 3.572-22.835 23.442-22.835 23.442l-24.288 24.928c-1.776 1.852-4.896 0.591-4.896-1.964v-51.136c0-0.845-0.603-1.562-1.433-1.726-5e-3 -2e-3 -9e-3 -2e-3 -0.014-3e-3 -18.604-4.144-42.01-26.572-46.585-44.613-7.611-34.906-7.611-70.292 0-105.2 4.575-18.041 27.981-40.469 46.585-44.613 42.536-8.09 85.664-8.09 128.19 0 18.613 4.144 42.018 26.572 46.585 44.613 7.619 34.907 7.619 70.293-1e-3 105.2z"/>
	<path d="m296.47 314.33c-2.86-0.869-5.585-1.452-8.118-2.501-26.231-10.883-50.371-24.923-69.492-46.444-10.874-12.238-19.385-26.055-26.579-40.677-3.412-6.934-6.287-14.139-9.218-21.299-2.672-6.528 1.264-13.272 5.408-18.192 3.889-4.617 8.894-8.149 14.314-10.754 4.23-2.032 8.402-0.86 11.492 2.725 6.678 7.752 12.814 15.9 17.78 24.886 3.055 5.527 2.217 12.283-3.32 16.044-1.346 0.914-2.572 1.988-3.825 3.02-1.1 0.905-2.134 1.819-2.888 3.044-1.377 2.241-1.443 4.886-0.557 7.323 6.827 18.761 18.334 33.351 37.219 41.21 3.022 1.257 6.056 2.72 9.538 2.315 5.83-0.681 7.718-7.077 11.804-10.418 3.993-3.265 9.097-3.308 13.398-0.586 4.303 2.724 8.473 5.646 12.619 8.601 4.07 2.9 8.121 5.735 11.874 9.042 3.61 3.179 4.853 7.349 2.82 11.662-3.72 7.901-9.135 14.472-16.944 18.668-2.205 1.182-4.839 1.565-7.325 2.331-2.86-0.869 2.486-0.766 0 0z"/>
	<path d="m256.07 165.43c34.309 0.962 62.49 23.731 68.529 57.651 1.029 5.78 1.395 11.688 1.853 17.555 0.193 2.467-1.205 4.811-3.867 4.844-2.75 0.033-3.987-2.269-4.167-4.734-0.353-4.882-0.598-9.787-1.271-14.627-3.551-25.559-23.931-46.704-49.371-51.241-3.829-0.683-7.745-0.862-11.624-1.269-2.451-0.257-5.661-0.405-6.204-3.453-0.455-2.555 1.701-4.589 4.134-4.72 0.659-0.039 1.324-8e-3 1.988-6e-3 34.311 0.962-0.664-2e-3 0 0z"/>
	<path d="m308.21 233.02c-0.057 0.429-0.086 1.436-0.338 2.384-0.91 3.444-6.134 3.875-7.335 0.4-0.357-1.031-0.41-2.205-0.412-3.315-0.012-7.266-1.591-14.526-5.256-20.849-3.767-6.499-9.523-11.96-16.272-15.267-4.082-1.998-8.495-3.241-12.969-3.98-1.955-0.324-3.931-0.519-5.896-0.793-2.381-0.331-3.653-1.848-3.539-4.194 0.105-2.198 1.712-3.781 4.108-3.644 7.873 0.446 15.479 2.15 22.48 5.856 14.234 7.539 22.366 19.437 24.74 35.326 0.107 0.721 0.279 1.433 0.334 2.155 0.134 1.782 0.219 3.567 0.355 5.921-0.057 0.427-0.136-2.354 0 0z"/>
	<path d="m286.87 232.19c-2.87 0.052-4.406-1.538-4.703-4.168-0.205-1.834-0.369-3.694-0.807-5.48-0.862-3.517-2.731-6.775-5.689-8.93-1.396-1.017-2.979-1.758-4.636-2.238-2.105-0.609-4.293-0.441-6.392-0.955-2.281-0.559-3.543-2.407-3.184-4.546 0.326-1.948 2.22-3.468 4.349-3.313 13.302 0.96 22.809 7.837 24.166 23.497 0.097 1.105 0.209 2.272-0.036 3.331-0.422 1.807-1.762 2.714-3.068 2.802-2.871 0.051 1.306-0.088 0 0z"/>
</g>
<path d="m391.43 179.92-0.084-0.338c-3.834-15.501-15.212-31.635-29.458-43.911l-19.259 17.068c11.452 9.125 21.264 21.766 24.052 32.78 7.62 34.907 7.62 70.292 0 105.2-4.567 18.041-27.982 40.469-46.585 44.613-24.355 4.632-48.904 6.611-73.428 5.932-0.488-0.014-0.957 0.176-1.296 0.526-3.481 3.572-22.835 23.442-22.835 23.442l-24.288 24.928c-1.776 1.852-4.896 0.593-4.896-1.964v-51.136c0-0.845-0.603-1.562-1.433-1.726-5e-3 0-9e-3 -2e-3 -0.014-2e-3 -10.573-2.355-22.692-10.618-32.028-20.621l-19.03 16.863c11.885 12.929 27.214 23.381 42.168 27.651v30.868c0 11.173 13.615 16.66 21.357 8.597l31.275-32.509c6.784 0.379 13.569 0.591 20.356 0.591 23.057 0 46.125-2.181 69.023-6.549l0.319-0.065c28.32-6.173 59.158-35.845 65.998-63.498l0.084-0.338c8.457-38.621 8.457-77.783 2e-3 -116.4z" fill="#D1D1D1"/>
<path d="m296.47 314.33c2.486-0.766-2.86-0.869 0 0z" fill="#fff"/>
<path d="m317.92 281.66c-3.753-3.305-7.806-6.142-11.874-9.042-4.146-2.955-8.316-5.877-12.619-8.601-4.301-2.722-9.404-2.679-13.398 0.586-4.086 3.341-5.973 9.737-11.804 10.418-3.481 0.405-6.516-1.059-9.538-2.315-11.619-4.834-20.435-12.226-27.098-21.559l-14.16 12.55c0.481 0.557 0.94 1.129 1.429 1.679 19.122 21.521 43.263 35.561 69.492 46.444 2.531 1.05 5.258 1.634 8.118 2.501-2.86-0.869 2.488-0.765 0 0 2.488-0.765 5.12-1.15 7.327-2.332 7.811-4.196 13.224-10.768 16.944-18.668 2.034-4.312 0.791-8.482-2.819-11.661z" fill="#D1D1D1"/>
<g fill="#fff">
	<path d="m256.16 165.43c-0.029 0-0.057-3e-3 -0.086-3e-3 -0.028-2e-3 8e-3 0 0.086 3e-3z"/>
	<path d="m256.07 165.43c0.029 0 0.057 3e-3 0.086 3e-3 1.904 0.068 32.872 0.921-0.086-3e-3z"/>
</g>
<g fill="#D1D1D1">
	<path d="m305.28 185.84-6.037 5.351c9.487 9.23 16.029 21.463 17.899 34.925 0.672 4.842 0.919 9.745 1.272 14.627 0.179 2.467 1.415 4.768 4.167 4.736 2.663-0.033 4.06-2.376 3.867-4.844-0.459-5.866-0.824-11.776-1.853-17.555-2.643-14.848-9.53-27.559-19.315-37.24z"/>
	<path d="m307.52 224.94c-1.729-11.578-6.532-21.026-14.51-28.224l-6.02 5.335c3.113 2.763 5.806 6.008 7.88 9.587 3.665 6.323 5.244 13.583 5.256 20.849 2e-3 1.11 0.055 2.284 0.412 3.317 1.203 3.477 6.425 3.046 7.335-0.4 0.252-0.95 0.281-1.957 0.338-2.384-0.057 0.429-0.138-2.353 0 0-0.138-2.353-0.222-4.139-0.357-5.923-0.053-0.725-0.226-1.437-0.334-2.157z"/>
</g>
<g fill="#fff">
	<path d="m308.21 233.02c-0.136-2.354-0.057 0.427 0 0z"/>
	<path d="m286.87 232.19c0.045-3e-3 0.088-0.026 0.131-0.031-0.121 0-0.307 3e-3 -0.498 0.01 0.124 3e-3 0.237 0.022 0.367 0.021z"/>
	<path d="m286.87 232.19c-0.129 2e-3 -0.243-0.017-0.367-0.021-0.621 0.017-1.262 0.05 0.367 0.021z"/>
	<path d="m287 232.16c-0.045 5e-3 -0.088 0.028-0.131 0.031 0.336-0.023 0.307-0.031 0.131-0.031z"/>
</g>
<path d="m280.81 207.52-6.128 5.432c0.338 0.205 0.669 0.419 0.99 0.652 2.958 2.155 4.827 5.413 5.689 8.93 0.438 1.786 0.6 3.644 0.807 5.48 0.283 2.513 1.71 4.058 4.336 4.148 0.191-5e-3 0.379-9e-3 0.498-0.01 1.264-0.14 2.531-1.026 2.936-2.774 0.245-1.057 0.133-2.226 0.036-3.331-0.762-8.755-4.072-14.762-9.164-18.527z" fill="#D1D1D1"/>
</svg>
